<svg xmlns="http://www.w3.org/2000/svg" viewBox="0 0 237.23 311.93"><title>icono-cana</title><g style="isolation:isolate"><g id="Capa_2" data-name="Capa 2"><g id="Capa_1-2" data-name="Capa 1"><path d="M39.9,277.1A18.14,18.14,0,0,0,58,293.93H179.24a18.15,18.15,0,0,0,18.1-16.83L211.8,77.43H25.43Z" style="fill:#f9dd10"/><path d="M196.61,17.93h-156A18.13,18.13,0,0,0,22.53,37.38l2.9,40.05H211.8l2.91-40.05A18.14,18.14,0,0,0,196.61,17.93Z" style="fill:#f2eedd"/><path d="M49.9,277.1,35.43,77.43l-2.9-40.05A18.13,18.13,0,0,1,50.62,17.93h-10A18.13,18.13,0,0,0,22.53,37.38l2.9,40.05L39.9,277.1A18.14,18.14,0,0,0,58,293.93H68A18.14,18.14,0,0,1,49.9,277.1Z" style="fill:#fff;mix-blend-mode:soft-light"/><path d="M196.61,17.93H178.92A18.14,18.14,0,0,1,197,37.38l-2.9,40.05L179.64,277.1a18.14,18.14,0,0,1-18.09,16.83h17.69a18.15,18.15,0,0,0,18.1-16.83L211.8,77.43l2.91-40.05A18.14,18.14,0,0,0,196.61,17.93Z" style="mix-blend-mode:soft-light"/><rect width="237.23" height="311.93" style="fill:none"/></g></g></g></svg>