<svg xmlns="http://www.w3.org/2000/svg" viewBox="0 0 237.23 311.93"><title>icono-zurito</title><g style="isolation:isolate"><g id="Capa_2" data-name="Capa 2"><g id="Capa_1-2" data-name="Capa 1"><path d="M39.9,277.1A18.14,18.14,0,0,0,58,293.93H179.24a18.15,18.15,0,0,0,18.1-16.83L211.8,138.82H25.43Z" style="fill:#f9dd10"/><path d="M196.61,79.31h-156A18.14,18.14,0,0,0,22.53,98.77l2.9,40.05H211.8l2.91-40A18.15,18.15,0,0,0,196.61,79.31Z" style="fill:#f2eedd"/><path d="M49.9,277.1,35.43,138.82l-2.9-40A18.14,18.14,0,0,1,50.62,79.31h-10A18.14,18.14,0,0,0,22.53,98.77l2.9,40.05L39.9,277.1A18.14,18.14,0,0,0,58,293.93H68A18.14,18.14,0,0,1,49.9,277.1Z" style="fill:#fff;mix-blend-mode:soft-light"/><path d="M196.61,79.31H178.92A18.15,18.15,0,0,1,197,98.77l-2.9,40.05L179.64,277.1a18.14,18.14,0,0,1-18.09,16.83h17.69a18.15,18.15,0,0,0,18.1-16.83L211.8,138.82l2.91-40A18.15,18.15,0,0,0,196.61,79.31Z" style="mix-blend-mode:soft-light"/><rect width="237.23" height="311.93" style="fill:none"/></g></g></g></svg>